<svg width="26" height="30" viewBox="0 0 26 30" fill="none" xmlns="http://www.w3.org/2000/svg">
<g clip-path="url(#clip0_2040_8091)">
<path fill-rule="evenodd" clip-rule="evenodd" d="M9.60768 13.7449H16.9348V1.55685L1.15868 10.2945V28.8466H9.02834V14.3216C9.02834 14.0016 9.28619 13.7449 9.60768 13.7449ZM11.8346 19.5055H14.2357V20.659H11.8346V19.5055ZM11.8346 16.8686H14.2357V18.022H11.8346V16.8686ZM16.3153 16.8552H18.7164V18.0087H16.3153V16.8552ZM16.3153 19.4922H18.7164V20.6456H16.3153V19.4922ZM20.796 16.8552H23.1971V18.0087H20.796V16.8552ZM20.796 22.1291H23.1971V23.2826H20.796V22.1291ZM20.796 19.4922H23.1971V20.6456H20.796V19.4922ZM3.73055 14.9583H6.13163V16.1118H3.73055V14.9583ZM3.73055 12.3214H6.13163V13.4748H3.73055V12.3214ZM3.73055 20.2323H6.13163V21.3857H3.73055V20.2323ZM3.73055 17.5953H6.13163V18.7488H3.73055V17.5953ZM13.7769 28.8466V23.6126H17.5443V28.8466H13.7769ZM12.6182 28.8466H10.1904V14.8983H24.8413V28.8466H18.703V23.0359C18.703 22.7192 18.4451 22.4592 18.1236 22.4592H13.1976C12.8761 22.4592 12.6182 22.7159 12.6182 23.0359V28.8466ZM18.0969 13.7415H25.424C25.7455 13.7415 26.0033 13.9982 26.0033 14.3183V29.4233C26.0033 29.7433 25.7455 30 25.424 30H0.579341C0.261206 30 0 29.7433 0 29.4233V9.95779C0 9.72443 0.140649 9.52441 0.341576 9.43106L17.2329 0.0733559C17.6213 -0.140001 18.0935 0.143364 18.0902 0.576745V13.7449L18.0969 13.7415Z" fill="#CDFDF3"/>
</g>
<defs>
<clipPath id="clip0_2040_8091">
<rect width="26" height="30" fill="white"/>
</clipPath>
</defs>
</svg>
