<svg width="26" height="24" viewBox="0 0 26 24" fill="none" xmlns="http://www.w3.org/2000/svg">
<circle cx="13.0909" cy="11.8182" r="3.11818" stroke="#CDFDF3" stroke-width="1.4"/>
<path d="M21.0979 11.196C21.2245 11.4584 21.2877 11.5896 21.2877 11.8181C21.2877 12.0466 21.2245 12.1778 21.0979 12.4402C20.3829 13.9235 18.1217 17.5454 13.091 17.5454C8.0602 17.5454 5.79906 13.9235 5.08399 12.4402C4.95748 12.1778 4.89422 12.0466 4.89422 11.8181C4.89422 11.5896 4.95748 11.4584 5.08399 11.196C5.79906 9.7127 8.0602 6.09082 13.091 6.09082C18.1217 6.09082 20.3829 9.71271 21.0979 11.196Z" stroke="#CDFDF3" stroke-width="1.4"/>
<path d="M20.0909 1H21.3818C23.1732 1 24.0688 1 24.6253 1.5565C25.1818 2.11299 25.1818 3.00866 25.1818 4.8V6.09091M20.0909 22.6364H21.3818C23.1732 22.6364 24.0688 22.6364 24.6253 22.0799C25.1818 21.5234 25.1818 20.6277 25.1818 18.8364V17.5455M6.09091 1H4.8C3.00866 1 2.11299 1 1.5565 1.5565C1 2.11299 1 3.00866 1 4.8V6.09091M6.09091 22.6364H4.8C3.00866 22.6364 2.11299 22.6364 1.5565 22.0799C1 21.5234 1 20.6277 1 18.8364V17.5455" stroke="#CDFDF3" stroke-width="1.4" stroke-linecap="round"/>
</svg>
