<svg width="23" height="22" viewBox="0 0 23 22" fill="none" xmlns="http://www.w3.org/2000/svg">
<path d="M1.54541 8.10851C1.54541 6.9057 1.54541 6.30429 1.84411 5.82099C2.14281 5.33768 2.68072 5.06872 3.75656 4.53081L9.93837 1.4399C10.8162 1.00099 11.2551 0.781539 11.7272 0.781539C12.1994 0.781539 12.6383 1.00099 13.5161 1.4399L19.6979 4.53081C20.7737 5.06872 21.3116 5.33768 21.6103 5.82099C21.909 6.30429 21.909 6.9057 21.909 8.10852V16.9091C21.909 18.7947 21.909 19.7375 21.3233 20.3233C20.7375 20.9091 19.7947 20.9091 17.909 20.9091H5.54541C3.65979 20.9091 2.71698 20.9091 2.1312 20.3233C1.54541 19.7375 1.54541 18.7947 1.54541 16.9091V8.10851Z" stroke="#CDFDF3" stroke-width="1.4"/>
<path d="M1.54541 8.18182L4.7778 11.4142C5.15288 11.7893 5.66159 12 6.19202 12H17.2624C17.7929 12 18.3016 11.7893 18.6767 11.4142L21.909 8.18182" stroke="#CDFDF3" stroke-width="1.4" stroke-linecap="round"/>
</svg>
