<svg width="28" height="26" viewBox="0 0 28 26" fill="none" xmlns="http://www.w3.org/2000/svg">
<circle cx="14.1945" cy="5.89711" r="4.74633" stroke="#CDFDF3" stroke-width="1.2" stroke-linecap="round"/>
<path d="M18.0037 2.7637C18.4472 2.14346 19.0647 1.66868 19.778 1.39938C20.4914 1.13009 21.2686 1.07838 22.0114 1.25079C22.7541 1.4232 23.4291 1.812 23.9509 2.368C24.4726 2.92401 24.8178 3.62226 24.9428 4.37445C25.0677 5.12665 24.9668 5.899 24.6528 6.59385C24.3388 7.28869 23.8258 7.87482 23.1787 8.27811C22.5316 8.6814 21.7794 8.88374 21.0173 8.85955C20.2552 8.83535 19.5173 8.5857 18.8971 8.14217" stroke="#CDFDF3" stroke-width="1.2"/>
<path d="M11.0535 2.70891C10.5992 2.09655 9.97343 1.63267 9.25545 1.37594C8.53747 1.1192 7.75948 1.08114 7.01987 1.26655C6.28026 1.45197 5.61224 1.85255 5.10028 2.41763C4.58833 2.9827 4.25544 3.6869 4.14371 4.44117C4.03198 5.19544 4.14642 5.96591 4.47257 6.65514C4.79871 7.34436 5.32192 7.9214 5.97601 8.31327C6.63011 8.70515 7.38572 8.89426 8.1473 8.8567C8.90887 8.81913 9.64221 8.55658 10.2546 8.10223" stroke="#CDFDF3" stroke-width="1.2"/>
<path d="M27.3862 19.9543L26.7976 20.0708V20.0708L27.3862 19.9543ZM16.1318 14.0698L15.6887 13.6653L14.9442 14.4807L16.0335 14.6617L16.1318 14.0698ZM23.4283 21.0451L22.8519 21.2118L22.9773 21.6451H23.4283V21.0451ZM20.432 12.7345C22.6004 12.7345 24.0559 13.9287 25.0564 15.478C26.0664 17.0421 26.568 18.9106 26.7976 20.0708L27.9748 19.8378C27.7337 18.6196 27.1953 16.5782 26.0645 14.827C24.9241 13.0611 23.1377 11.5345 20.432 11.5345V12.7345ZM16.5749 14.4744C17.5119 13.4482 18.7516 12.7345 20.432 12.7345V11.5345C18.3581 11.5345 16.8121 12.4349 15.6887 13.6653L16.5749 14.4744ZM16.0335 14.6617C20.2932 15.3695 22.0855 18.5626 22.8519 21.2118L24.0047 20.8783C23.1793 18.0256 21.1492 14.2953 16.2302 13.4779L16.0335 14.6617ZM26.4554 20.4451H23.4283V21.6451H26.4554V20.4451ZM26.7976 20.0708C26.8329 20.2492 26.7012 20.4451 26.4554 20.4451V21.6451C27.3928 21.6451 28.1692 20.8202 27.9748 19.8378L26.7976 20.0708Z" fill="#CDFDF3"/>
<path d="M12.2573 14.0697L12.3556 14.6616L13.4449 14.4806L12.7004 13.6652L12.2573 14.0697ZM1.00297 19.9543L0.414381 19.8378L1.00297 19.9543ZM4.96092 21.0451V21.6451H5.41194L5.53728 21.2118L4.96092 21.0451ZM7.95722 12.7345C9.63753 12.7345 10.8773 13.4481 11.8142 14.4743L12.7004 13.6652C11.577 12.4348 10.031 11.5345 7.95722 11.5345V12.7345ZM1.59155 20.0708C1.82114 18.9106 2.32275 17.0421 3.33279 15.478C4.3333 13.9287 5.78876 12.7345 7.95722 12.7345V11.5345C5.25146 11.5345 3.46512 13.0611 2.32472 14.827C1.19386 16.5782 0.655447 18.6196 0.414381 19.8378L1.59155 20.0708ZM1.93377 20.4451C1.68799 20.4451 1.55625 20.2492 1.59155 20.0708L0.414381 19.8378C0.219994 20.8202 0.996305 21.6451 1.93377 21.6451V20.4451ZM4.96092 20.4451H1.93377V21.6451H4.96092V20.4451ZM5.53728 21.2118C6.30371 18.5626 8.09595 15.3695 12.3556 14.6616L12.1589 13.4778C7.23994 14.2953 5.20987 18.0256 4.38455 20.8783L5.53728 21.2118Z" fill="#CDFDF3"/>
<path d="M14.1947 13.9167C22.1483 13.9167 23.6479 20.9576 23.9306 23.6125C23.9891 24.1617 23.5486 24.6094 22.9963 24.6094H5.39307C4.84078 24.6094 4.40027 24.1617 4.45875 23.6125C4.74146 20.9576 6.24099 13.9167 14.1947 13.9167Z" stroke="#CDFDF3" stroke-width="1.2" stroke-linecap="round"/>
</svg>
